<svg viewBox="0 0 100 100" xmlns="http://www.w3.org/2000/svg">
  <rect x="2" y="2" width="96" height="96" rx="22" fill="#FEFAF2" stroke="#3E2F26" stroke-width="4"/>
  <g stroke="#3E2F26" stroke-width="3" stroke-linejoin="round" stroke-linecap="round">
    <!-- white shirt: shoulders + sleeves -->
    <path d="M24 92c0-14 9-24 26-24s26 10 26 24Z" fill="#FEFAF2"/>
    <!-- shirt collar notch -->
    <path d="M43 69l7 7 7-7" fill="#FEFAF2"/>
    <!-- blue apron over the shirt, narrower/fitted -->
    <path d="M40 74c0-1.6 1.4-2.6 3-2.6h14c1.6 0 3 1 3 2.6l2.4 18.5H37.6Z" fill="#4E7FA8"/>
    <!-- apron bib -->
    <path d="M43.5 62h13v9.4h-13Z" fill="#4E7FA8"/>
    <!-- neck strap over shoulders -->
    <path d="M45 62c-2-5-6-4.5-6-9M55 62c2-5 6-4.5 6-9" fill="none" stroke-width="2.6"/>
    <!-- apron waist ties -->
    <path d="M40 76c-4 .5-7 .5-9-1M60 76c4 .5 7 .5 9-1" fill="none" stroke-width="2.4"/>
    <!-- apron waist seam -->
    <path d="M39 80h22" stroke="#3E2F26" stroke-width="2.2"/>
    <!-- ears -->
    <circle cx="32" cy="27" r="9.5" fill="#B98748"/>
    <circle cx="68" cy="27" r="9.5" fill="#B98748"/>
    <circle cx="32" cy="27" r="3.8" fill="#8F6533" stroke="none"/>
    <circle cx="68" cy="27" r="3.8" fill="#8F6533" stroke="none"/>
    <!-- head -->
    <circle cx="50" cy="41" r="22" fill="#B98748"/>
    <!-- muzzle -->
    <ellipse cx="50" cy="47" rx="11.5" ry="8.5" fill="#E7D2AD"/>
    <!-- brow line for a calmer, composed look -->
    <path d="M40 34.5c1.6-1 3.4-1 5 0M55 34.5c1.6-1 3.4-1 5 0" fill="none" stroke-width="2.4"/>
    <!-- eyes: smaller, level -->
    <circle cx="42.5" cy="39" r="2.4" fill="#3E2F26" stroke="none"/>
    <circle cx="57.5" cy="39" r="2.4" fill="#3E2F26" stroke="none"/>
    <!-- nose + neutral mouth -->
    <path d="M47 44.5h6l-3 3Z" fill="#3E2F26" stroke-linejoin="round"/>
    <path d="M50 47.5v3M45.5 51.5h9" fill="none"/>
    <!-- paws resting at apron top -->
    <circle cx="37" cy="66" r="4.6" fill="#B98748"/>
    <circle cx="63" cy="66" r="4.6" fill="#B98748"/>
  </g>
</svg>
